<?xml version="1.0" encoding="UTF-8"?>
<svg width="120px" height="100px" viewBox="0 0 120 100" version="1.1" xmlns="http://www.w3.org/2000/svg" xmlns:xlink="http://www.w3.org/1999/xlink">
    <title>Gauge</title>
    <g id="Page-1" stroke="none" stroke-width="1" fill="none" fill-rule="evenodd" fill-opacity="0.85">
        <g id="Gauge" fill="#FFFFFF">
            <path d="M119.979,59.9648 C119.979,45.3223 114.7,31.8252 105.885,21.3662 C104.889,20.1709 103.195,20.1709 102.1,21.3164 L90.5449,32.8711 C89.5986,33.8174 89.5488,35.1621 90.3955,36.208 C95.5254,42.7822 98.6133,51.0498 98.6133,59.9648 C98.6133,68.9297 95.5254,77.1973 90.0967,84.1201 C89.3994,84.9668 89.4492,86.0625 90.1963,86.8594 L102.05,98.7129 C103.195,99.8584 104.839,99.8584 105.885,98.6133 C114.7,88.1543 119.979,74.6572 119.979,59.9648 Z" id="Path" fill-rule="nonzero"></path>
            <path d="M59.9648,21.3662 C68.9795,21.3662 77.2471,24.5039 83.8711,29.6338 C84.8672,30.4307 86.1621,30.3311 87.1084,29.3848 L98.6631,17.8301 C99.8086,16.6846 99.7588,15.041 98.5635,14.0449 C88.1543,5.2793 74.6572,0 59.9648,0 C45.3223,0 31.8252,5.2793 21.416,14.0449 C20.2207,15.041 20.1709,16.6846 21.3164,17.8301 L32.8711,29.3848 C33.8174,30.3311 35.1621,30.4307 36.2578,29.584 C42.832,24.5039 51.0498,21.3662 59.9648,21.3662 Z" id="Path" fill-rule="nonzero"></path>
            <path d="M0,59.9648 C0,74.6572 5.2793,88.1543 14.0947,98.6133 C15.0908,99.8584 16.7842,99.8584 17.8799,98.7129 L29.7334,86.8594 C30.4805,86.0625 30.5801,84.9668 29.8828,84.1201 C24.4541,77.1973 21.3662,68.9297 21.3662,59.9648 C21.3662,51.0498 24.4043,42.7822 29.584,36.208 C30.3809,35.1621 30.3809,33.8174 29.4346,32.8711 L17.8799,21.3164 C16.7344,20.1709 15.0908,20.1709 14.0947,21.3662 C5.2793,31.8252 0,45.3223 0,59.9648 Z" id="Path" fill-rule="nonzero"></path>
        </g>
    </g>
</svg>